# Alias OBJ Model File
# Exported from SketchUp, (c) 2000-2006 Google, Inc.
# File units = centimeters

mtllib blockb.mtl

g Mesh1 Model

usemtl FrontColor
v 17 50 17
vt -6.69825 19.685
vn 1.17801e-016 9.017e-033 -1
v 33 33 17
vt -12.9868 12.9868
v 17 33 17
vt -6.69825 12.9868
f 1/1/1 2/2/1 3/3/1

v 33 50 17
vt -12.9868 19.685
f 2/2/1 1/1/1 4/4/1

vt 6.69825 -6.69825
vn 0 1 -0
v 33 50 33
vt 12.9868 -12.9868
vt 12.9868 -6.69825
f 1/5/2 5/6/2 4/7/2

v 17 50 33
vt 6.69825 -12.9868
f 5/6/2 1/5/2 6/8/2

vt 6.69825 19.685
vn -1 0 -0
v 17 33 33
vt 12.9868 12.9868
vt 12.9868 19.685
f 1/9/3 7/10/3 6/11/3

vt 6.69825 12.9868
f 7/10/3 1/9/3 3/12/3

v 0 33 17
vt 0 -6.69825
vt 6.69825 -6.69825
f 8/13/2 7/8/2 3/14/2

v 0 33 33
vt 0 -12.9868
f 7/8/2 8/13/2 9/15/2

vt 6.69825 12.9868
v 0 17 33
vt 12.9868 6.69825
f 8/16/3 10/17/3 9/10/3

v 0 17 17
vt 6.69825 6.69825
f 10/17/3 8/16/3 11/18/3

vt -7.89061e-016 12.9868
v 17 17 17
vt -6.69825 6.69825
vt -7.89061e-016 6.69825
f 8/19/1 12/20/1 11/21/1

f 12/20/1 8/19/1 3/3/1

v 17 33 -0
vt 0 12.9868
vt 6.69825 6.69825
f 13/22/3 12/23/3 3/12/3

v 17 17 -0
vt 0 6.69825
f 12/23/3 13/22/3 14/24/3

vt -6.69825 12.9868
vn 0 0 -1
v 33 17 -0
vt -12.9868 6.69825
vt -6.69825 6.69825
f 13/25/4 15/26/4 14/27/4

v 33 33 -0
f 15/26/4 13/25/4 16/2/4

vt 6.69825 0
vt 12.9868 0
f 13/28/2 2/7/2 16/29/2

f 2/7/2 13/28/2 3/14/2

vt -6.69825 12.9868
vn 1 1.37314e-049 -1.8034e-032
vt -2.34204e-031 6.69825
vt -2.34204e-031 12.9868
f 2/30/5 15/31/5 16/32/5

v 33 17 17
vt -6.69825 6.69825
f 15/31/5 2/30/5 17/33/5

v 50 17 17
vt -19.685 6.69825
f 2/2/4 18/34/4 17/26/4

v 50 33 17
vt -19.685 12.9868
f 18/34/4 2/2/4 19/35/4

v 50 33 33
vt 19.685 -12.9868
vt 19.685 -6.69825
f 2/7/2 20/36/2 19/37/2

v 33 33 33
f 20/36/2 2/7/2 21/6/2

vt -12.9868 19.685
vt -12.9868 12.9868
f 2/30/5 5/38/5 21/39/5

vt -6.69825 19.685
f 5/38/5 2/30/5 4/40/5

vt 12.9868 19.685
vn 0 0 1
vt 6.69825 12.9868
vt 12.9868 12.9868
f 5/41/6 7/42/6 21/43/6

vt 6.69825 19.685
f 7/42/6 5/41/6 6/44/6

v 33 33 50
vt 12.9868 -19.685
f 7/8/2 22/45/2 21/6/2

v 17 33 50
vt 6.69825 -19.685
f 22/45/2 7/8/2 23/46/2

v 17 17 50
vt 19.685 6.69825
vt 19.685 12.9868
f 7/10/3 24/47/3 23/48/3

v 17 17 33
f 24/47/3 7/10/3 25/17/3

vt 6.69825 6.69825
f 7/42/6 10/24/6 25/49/6

f 10/24/6 7/42/6 9/22/6

vn 0 -1 -0
vt -6.69825 -6.69825
vt -6.69825 -12.9868
f 10/15/7 12/50/7 25/51/7

f 12/50/7 10/15/7 11/13/7

v 17 0 33
vt 12.9868 0
f 12/23/3 26/52/3 25/17/3

v 17 0 17
vt 6.69825 0
f 26/52/3 12/23/3 27/53/3

v 33 0 17
vt -12.9868 6.03981e-032
vt -6.69825 6.03981e-032
f 12/20/1 28/54/1 27/55/1

f 28/54/1 12/20/1 17/26/1

vt -12.9868 0
vt -12.9868 -6.69825
f 12/50/7 15/56/7 17/57/7

vt -6.69825 0
f 15/56/7 12/50/7 14/58/7

v 33 17 33
vt -12.9868 6.69825
vt -6.69825 -1.78327e-048
f 29/59/5 28/60/5 17/33/5

v 33 0 33
vt -12.9868 -1.78327e-048
f 28/60/5 29/59/5 30/61/5

vt 12.9868 6.69825
f 29/62/6 26/28/6 30/29/6

f 26/28/6 29/62/6 25/49/6

vt -12.9868 -12.9868
vt -6.69825 -19.685
f 29/63/7 24/64/7 25/51/7

v 33 17 50
vt -12.9868 -19.685
f 24/64/7 29/63/7 31/65/7

vt -19.685 12.9868
vt -19.685 6.69825
f 29/59/5 22/66/5 31/67/5

f 22/66/5 29/59/5 21/39/5

vt 19.685 12.9868
f 29/62/6 20/68/6 21/43/6

v 50 17 33
vt 19.685 6.69825
f 20/68/6 29/62/6 32/69/6

vt -19.685 -6.69825
vt -19.685 -12.9868
f 29/63/7 18/70/7 32/71/7

f 18/70/7 29/63/7 17/57/7

vn 1 0 -0
f 18/33/8 20/39/8 32/59/8

f 20/39/8 18/33/8 19/30/8

f 22/43/6 24/49/6 31/62/6

f 24/49/6 22/43/6 23/42/6

f 26/51/7 28/57/7 30/63/7

vt -6.69825 -6.69825
f 28/57/7 26/51/7 27/72/7

